<svg width="129" height="44" viewBox="0 0 129 44" xmlns="http://www.w3.org/2000/svg"><title>Untitled</title><path d="M2.68 43v-5.072h1.904v-.64H.016v.64H1.92V43h.76zm1.354 0l.64-1.72H7.09L7.714 43h.84l-2.232-5.712h-.84L3.258 43h.776zm2.816-2.36H4.914l.968-2.664h.016l.952 2.664zM12.348 43v-.64H9.324v-5.072h-.76V43h3.784zm4.082 0v-.64h-3.208v-1.976h2.968v-.64h-2.968v-1.816h3.184v-.64h-3.944V43h3.968zm1.082 0v-4.584h.016L20.512 43h.832v-5.712h-.72v4.632h-.016L17.6 37.288h-.808V43h.72zm6.57 0v-5.072h1.905v-.64h-4.568v.64h1.904V43h.76zm4.453 0v-5.712h-.76V43h.76zm1.442 0v-4.584h.016L32.977 43h.832v-5.712h-.72v4.632h-.016l-3.008-4.632h-.808V43h.72zm8.636 0v-4.656h1.712v-1.056h-4.68v1.056h1.712V43h1.256zm6.154 0v-1.056h-3.08v-1.4h2.768v-.976h-2.768v-1.224h3.016v-1.056h-4.272V43h4.336zm2.858.128c.352 0 .675-.053.968-.16a2.244 2.244 0 0 0 1.296-1.2c.134-.288.216-.61.248-.968h-1.216c-.048.384-.18.693-.396.928-.216.235-.516.352-.9.352-.282 0-.522-.055-.72-.164a1.374 1.374 0 0 1-.48-.436 1.892 1.892 0 0 1-.268-.612 2.908 2.908 0 0 1-.084-.7c0-.25.028-.493.084-.728a1.94 1.94 0 0 1 .268-.628 1.36 1.36 0 0 1 .48-.44c.198-.11.438-.164.72-.164a1.306 1.306 0 0 1 1.104.604c.075.12.123.252.144.396h1.216a2.302 2.302 0 0 0-.272-.88 2.14 2.14 0 0 0-.548-.644 2.415 2.415 0 0 0-.752-.396 2.878 2.878 0 0 0-.892-.136c-.437 0-.83.077-1.18.232-.349.155-.644.368-.884.64s-.424.59-.552.956a3.57 3.57 0 0 0-.192 1.188c0 .416.064.804.192 1.164.128.36.312.673.552.94.24.267.535.476.884.628.35.152.743.228 1.18.228zM51.7 43v-2.464h2.312V43h1.256v-5.712h-1.256v2.192H51.7v-2.192h-1.256V43H51.7zm4.907 0v-4.584h.016L59.606 43h.832v-5.712h-.72v4.632h-.016l-3.008-4.632h-.808V43h.72zm5.306 0v-5.712h-.76V43h.76zm3.09.128c.73 0 1.306-.2 1.728-.6.421-.4.67-.96.744-1.68h-.76a2.18 2.18 0 0 1-.144.656 1.512 1.512 0 0 1-.836.868 1.696 1.696 0 0 1-.668.124 1.88 1.88 0 0 1-.88-.192 1.719 1.719 0 0 1-.604-.516 2.21 2.21 0 0 1-.348-.76 3.701 3.701 0 0 1-.112-.924c0-.299.037-.587.112-.864.074-.277.19-.524.348-.74.157-.216.357-.388.6-.516.242-.128.534-.192.876-.192.4 0 .745.101 1.036.304.29.203.478.507.564.912h.76a2.125 2.125 0 0 0-.272-.804 1.978 1.978 0 0 0-.52-.58 2.28 2.28 0 0 0-.712-.352c-.267-.08-.55-.12-.848-.12-.438 0-.826.079-1.164.236a2.406 2.406 0 0 0-.848.644c-.227.272-.399.59-.516.956a3.81 3.81 0 0 0-.176 1.172c0 .416.054.805.164 1.168.11.363.273.677.492.944.218.267.493.476.824.628.33.152.717.228 1.16.228zm5.282 0c.453 0 .85-.081 1.192-.244.341-.163.627-.383.856-.66.23-.277.401-.596.516-.956.115-.36.172-.735.172-1.124 0-.39-.057-.764-.172-1.124a2.832 2.832 0 0 0-.516-.956 2.519 2.519 0 0 0-.856-.664c-.341-.165-.739-.248-1.192-.248-.453 0-.85.083-1.192.248a2.519 2.519 0 0 0-.856.664c-.23.277-.401.596-.516.956-.115.36-.172.735-.172 1.124 0 .39.057.764.172 1.124.115.36.287.679.516.956.23.277.515.497.856.66.341.163.739.244 1.192.244zm0-.632c-.347 0-.645-.068-.896-.204a1.8 1.8 0 0 1-.616-.54 2.314 2.314 0 0 1-.352-.756 3.293 3.293 0 0 1 0-1.704 2.32 2.32 0 0 1 .352-.756 1.8 1.8 0 0 1 .616-.54c.25-.136.55-.204.896-.204.347 0 .645.068.896.204a1.8 1.8 0 0 1 .616.54c.16.224.277.476.352.756a3.293 3.293 0 0 1 0 1.704 2.32 2.32 0 0 1-.352.756 1.8 1.8 0 0 1-.616.54c-.25.136-.55.204-.896.204zm6.898.504v-.64h-3.024v-5.072h-.76V43h3.784zm2.53.128c.453 0 .85-.081 1.192-.244.341-.163.627-.383.856-.66.23-.277.401-.596.516-.956.115-.36.172-.735.172-1.124 0-.39-.057-.764-.172-1.124a2.832 2.832 0 0 0-.516-.956 2.519 2.519 0 0 0-.856-.664c-.341-.165-.739-.248-1.192-.248-.453 0-.85.083-1.192.248a2.519 2.519 0 0 0-.856.664c-.23.277-.401.596-.516.956-.115.36-.172.735-.172 1.124 0 .39.057.764.172 1.124.115.36.287.679.516.956.23.277.515.497.856.66.341.163.739.244 1.192.244zm0-.632c-.347 0-.645-.068-.896-.204a1.8 1.8 0 0 1-.616-.54 2.314 2.314 0 0 1-.352-.756 3.293 3.293 0 0 1 0-1.704 2.32 2.32 0 0 1 .352-.756 1.8 1.8 0 0 1 .616-.54c.25-.136.55-.204.896-.204.347 0 .645.068.896.204a1.8 1.8 0 0 1 .616.54c.16.224.277.476.352.756a3.293 3.293 0 0 1 0 1.704 2.32 2.32 0 0 1-.352.756 1.8 1.8 0 0 1-.616.54c-.25.136-.55.204-.896.204zm5.426.632c.72 0 1.275-.183 1.664-.548.39-.365.584-.913.584-1.644v-3.648h-.76v3.648c0 .512-.127.9-.38 1.164-.253.264-.623.396-1.108.396-.512 0-.904-.132-1.176-.396-.272-.264-.408-.652-.408-1.164v-3.648h-.76v3.648c0 .763.207 1.319.62 1.668.413.35.988.524 1.724.524zM88.812 43v-2.44h1.856c.187 0 .336.028.448.084a.75.75 0 0 1 .272.224c.07.093.12.203.152.328s.059.257.08.396c.027.139.043.28.048.424.006.144.01.279.016.404s.018.239.036.34a.477.477 0 0 0 .108.24h.848a.976.976 0 0 1-.18-.332 2.602 2.602 0 0 1-.092-.396 3.683 3.683 0 0 1-.04-.424 10.685 10.685 0 0 0-.024-.424 3.677 3.677 0 0 0-.068-.4 1.214 1.214 0 0 0-.136-.348.877.877 0 0 0-.248-.268 1.018 1.018 0 0 0-.404-.16v-.016c.347-.096.599-.275.756-.536.158-.261.236-.565.236-.912 0-.464-.153-.83-.46-1.096-.306-.267-.732-.4-1.276-.4h-2.688V43h.76zm1.584-3.08h-1.584v-1.992H90.7c.358 0 .616.09.776.272.16.181.24.416.24.704 0 .208-.036.377-.108.508a.854.854 0 0 1-.288.312 1.1 1.1 0 0 1-.42.156c-.16.027-.328.04-.504.04zM18 30.464v-1.8H0v1.8h18zM24.195 26v-9.756c0-1.896.312-3.258.936-4.086.624-.828 1.632-1.242 3.024-1.242 1.224 0 2.076.378 2.556 1.134.48.756.72 1.902.72 3.438V26h5.112V14.552c0-1.152-.102-2.202-.306-3.15-.204-.948-.558-1.752-1.062-2.412-.504-.66-1.194-1.176-2.07-1.548-.876-.372-1.998-.558-3.366-.558-1.08 0-2.136.246-3.168.738S24.7 8.9 24.051 9.98h-.108V7.388h-4.86V26h5.112zm24.412.468c1.464 0 2.79-.228 3.978-.684 1.188-.456 2.202-1.11 3.042-1.962.84-.852 1.488-1.878 1.944-3.078.456-1.2.684-2.544.684-4.032s-.228-2.838-.684-4.05c-.456-1.212-1.104-2.244-1.944-3.096-.84-.852-1.854-1.512-3.042-1.98-1.188-.468-2.514-.702-3.978-.702-1.464 0-2.784.234-3.96.702a8.711 8.711 0 0 0-3.024 1.98c-.84.852-1.488 1.884-1.944 3.096-.456 1.212-.684 2.562-.684 4.05s.228 2.832.684 4.032c.456 1.2 1.104 2.226 1.944 3.078a8.504 8.504 0 0 0 3.024 1.962c1.176.456 2.496.684 3.96.684zm0-3.816c-.864 0-1.584-.168-2.16-.504a3.93 3.93 0 0 1-1.386-1.35 5.802 5.802 0 0 1-.738-1.908 11.17 11.17 0 0 1 0-4.374c.144-.72.39-1.356.738-1.908a4.145 4.145 0 0 1 1.386-1.35c.576-.348 1.296-.522 2.16-.522.864 0 1.59.174 2.178.522a4.093 4.093 0 0 1 1.404 1.35c.348.552.594 1.188.738 1.908a11.17 11.17 0 0 1 0 4.374 5.802 5.802 0 0 1-.738 1.908 3.886 3.886 0 0 1-1.404 1.35c-.588.336-1.314.504-2.178.504zM65.962 26V.296H60.85V26h5.112zm12.207.468c1.464 0 2.79-.228 3.978-.684 1.188-.456 2.202-1.11 3.042-1.962.84-.852 1.488-1.878 1.944-3.078.456-1.2.684-2.544.684-4.032s-.228-2.838-.684-4.05c-.456-1.212-1.104-2.244-1.944-3.096-.84-.852-1.854-1.512-3.042-1.98-1.188-.468-2.514-.702-3.978-.702-1.464 0-2.784.234-3.96.702a8.711 8.711 0 0 0-3.024 1.98c-.84.852-1.488 1.884-1.944 3.096-.456 1.212-.684 2.562-.684 4.05s.228 2.832.684 4.032c.456 1.2 1.104 2.226 1.944 3.078a8.504 8.504 0 0 0 3.024 1.962c1.176.456 2.496.684 3.96.684zm0-3.816c-.864 0-1.584-.168-2.16-.504a3.93 3.93 0 0 1-1.386-1.35 5.802 5.802 0 0 1-.738-1.908 11.17 11.17 0 0 1 0-4.374c.144-.72.39-1.356.738-1.908a4.145 4.145 0 0 1 1.386-1.35c.576-.348 1.296-.522 2.16-.522.864 0 1.59.174 2.178.522a4.093 4.093 0 0 1 1.404 1.35c.348.552.594 1.188.738 1.908a11.17 11.17 0 0 1 0 4.374 5.802 5.802 0 0 1-.738 1.908 3.886 3.886 0 0 1-1.404 1.35c-.588.336-1.314.504-2.178.504zM98.512 33.02c2.136 0 3.84-.288 5.112-.864 1.272-.576 2.244-1.278 2.916-2.106.672-.828 1.11-1.722 1.314-2.682.204-.96.306-1.812.306-2.556V7.388h-4.86v2.484h-.072c-.624-1.08-1.398-1.848-2.322-2.304-.924-.456-1.998-.684-3.222-.684-1.296 0-2.442.252-3.438.756a7.394 7.394 0 0 0-2.502 2.034 9.08 9.08 0 0 0-1.53 2.952 11.602 11.602 0 0 0-.522 3.474c0 1.272.15 2.478.45 3.618.3 1.14.774 2.136 1.422 2.988a6.83 6.83 0 0 0 2.484 2.016c1.008.492 2.208.738 3.6.738a7.637 7.637 0 0 0 3.222-.702 5.061 5.061 0 0 0 2.358-2.178h.072v2.448c.024 1.32-.294 2.412-.954 3.276-.66.864-1.71 1.296-3.15 1.296-.912 0-1.716-.186-2.412-.558-.696-.372-1.164-1.038-1.404-1.998h-5.076c.072 1.056.366 1.962.882 2.718a6.37 6.37 0 0 0 1.944 1.854c.78.48 1.644.834 2.592 1.062.948.228 1.878.342 2.79.342zm.432-11.412c-.792 0-1.452-.168-1.98-.504a3.995 3.995 0 0 1-1.278-1.296 5.4 5.4 0 0 1-.684-1.782 10.163 10.163 0 0 1-.198-1.998c0-.696.078-1.362.234-1.998.156-.636.408-1.2.756-1.692.348-.492.78-.882 1.296-1.17.516-.288 1.134-.432 1.854-.432.84 0 1.536.156 2.088.468.552.312.996.732 1.332 1.26.336.528.576 1.134.72 1.818.144.684.216 1.41.216 2.178a6.79 6.79 0 0 1-.27 1.926 5.102 5.102 0 0 1-.81 1.638c-.36.48-.816.864-1.368 1.152-.552.288-1.188.432-1.908.432zm15.232 10.908c1.752 0 3.12-.324 4.104-.972.984-.648 1.752-1.728 2.304-3.24l7.776-20.916h-5.292L119 20.132h-.072l-4.212-12.744h-5.436l6.516 17.46c.144.36.216.744.216 1.152 0 .552-.162 1.056-.486 1.512-.324.456-.822.72-1.494.792-.504.024-1.008.012-1.512-.036s-.996-.096-1.476-.144v4.212c.528.048 1.05.09 1.566.126.516.036 1.038.054 1.566.054z" fill="#4A2F73"/></svg>